/* XPM */
static char * xosview_xpm[] = {
"25 32 604 2",
"  	c None",
". 	c #00A0A1",
"+ 	c #038A8D",
"@ 	c #048588",
"# 	c #028B8F",
"$ 	c #028B8E",
"% 	c #038B8E",
"& 	c #028A8E",
"* 	c #019495",
"= 	c #00007E",
"- 	c #00007F",
"; 	c #01007D",
"> 	c #1C0B70",
", 	c #200D6E",
"' 	c #1F0D6E",
") 	c #1D0B70",
"! 	c #0E0582",
"~ 	c #0A0F87",
"{ 	c #111D8B",
"] 	c #080A85",
"^ 	c #00588D",
"/ 	c #0C0482",
"( 	c #1B1986",
"_ 	c #191785",
": 	c #090881",
"< 	c #070681",
"[ 	c #070783",
"} 	c #130F7C",
"| 	c #6E494C",
"1 	c #895A3F",
"2 	c #8B5C3E",
"3 	c #704A4A",
"4 	c #5B4A7C",
"5 	c #5690A3",
"6 	c #487298",
"7 	c #426694",
"8 	c #130975",
"9 	c #171078",
"0 	c #140C7B",
"a 	c #005B8C",
"b 	c #058789",
"c 	c #3B2F8C",
"d 	c #796E99",
"e 	c #6E6397",
"f 	c #292588",
"g 	c #272388",
"h 	c #302B8A",
"i 	c #694A63",
"j 	c #845C57",
"k 	c #815B57",
"l 	c #805A58",
"m 	c #835B53",
"n 	c #855650",
"o 	c #855851",
"p 	c #865A50",
"q 	c #896254",
"r 	c #896153",
"s 	c #8A6152",
"t 	c #8B5F51",
"u 	c #8A5F51",
"v 	c #8B6151",
"w 	c #8E6350",
"x 	c #7A6068",
"y 	c #045A8A",
"z 	c #038C8F",
"A 	c #0E0682",
"B 	c #0B0A82",
"C 	c #0A0982",
"D 	c #050581",
"E 	c #0C0B82",
"F 	c #080980",
"G 	c #403E68",
"H 	c #524F5F",
"I 	c #564966",
"J 	c #816A53",
"K 	c #745E52",
"L 	c #675158",
"M 	c #6D5657",
"N 	c #6F5063",
"O 	c #714C51",
"P 	c #6F4C59",
"Q 	c #65546D",
"R 	c #626478",
"S 	c #646778",
"T 	c #585272",
"U 	c #4B3667",
"V 	c #402F72",
"W 	c #015D8D",
"X 	c #038C8E",
"Y 	c #1E1486",
"Z 	c #37328B",
"` 	c #242087",
" .	c #181685",
"..	c #221F87",
"+.	c #151583",
"@.	c #193276",
"#.	c #1F3F73",
"$.	c #293986",
"%.	c #636362",
"&.	c #5D5F5C",
"*.	c #4A4B65",
"=.	c #535367",
"-.	c #4A3E7B",
";.	c #533B5E",
">.	c #503C6A",
",.	c #38428B",
"'.	c #2D559D",
").	c #3464A1",
"!.	c #2C4994",
"~.	c #111585",
"{.	c #0A0882",
"].	c #005C8D",
"^.	c #048C8E",
"/.	c #3A2E8C",
"(.	c #4C4490",
"_.	c #49438F",
":.	c #312C8A",
"<.	c #443E8E",
"[.	c #46408F",
"}.	c #34308A",
"|.	c #817F56",
"1.	c #A4A045",
"2.	c #979B55",
"3.	c #9A9749",
"4.	c #A2A249",
"5.	c #A6A345",
"6.	c #A1A04B",
"7.	c #98994C",
"8.	c #9C9A4B",
"9.	c #8C9151",
"0.	c #537268",
"a.	c #356073",
"b.	c #336377",
"c.	c #8D9652",
"d.	c #6D815F",
"e.	c #435E78",
"f.	c #080181",
"g.	c #070781",
"h.	c #090882",
"i.	c #0C0D80",
"j.	c #344868",
"k.	c #405761",
"l.	c #3B496C",
"m.	c #7D7B54",
"n.	c #6B6B50",
"o.	c #5D5D56",
"p.	c #666454",
"q.	c #675B64",
"r.	c #6A554E",
"s.	c #625258",
"t.	c #374C81",
"u.	c #305F90",
"v.	c #2F6292",
"w.	c #435D7D",
"x.	c #242E75",
"y.	c #131A7B",
"z.	c #201786",
"A.	c #302C8A",
"B.	c #1C1A86",
"C.	c #181585",
"D.	c #1D1A86",
"E.	c #2A2588",
"F.	c #151483",
"G.	c #031578",
"H.	c #031D75",
"I.	c #161C84",
"J.	c #393465",
"K.	c #3D395E",
"L.	c #2B2768",
"M.	c #332D6B",
"N.	c #24157C",
"O.	c #2F1663",
"P.	c #2B1770",
"Q.	c #1C1C87",
"R.	c #0A2798",
"S.	c #153A9D",
"T.	c #0D2293",
"U.	c #000085",
"V.	c #000082",
"W.	c #005B8D",
"X.	c #048D8E",
"Y.	c #42368D",
"Z.	c #575092",
"`.	c #4C448F",
" +	c #47408F",
".+	c #574E92",
"++	c #5C5393",
"@+	c #45408E",
"#+	c #507F74",
"$+	c #5E9F6D",
"%+	c #5F9D6F",
"&+	c #609E6C",
"*+	c #68A069",
"=+	c #66A16A",
"-+	c #609D6D",
";+	c #5E9C6E",
">+	c #5F9B6C",
",+	c #7AA966",
"'+	c #C3D54F",
")+	c #E5EE43",
"!+	c #EDF341",
"~+	c #7BB065",
"{+	c #A3C155",
"]+	c #D8D14E",
"^+	c #04608C",
"/+	c #000080",
"(+	c #01037F",
"_+	c #081978",
":+	c #0A1C78",
"<+	c #05117B",
"[+	c #081679",
"}+	c #091C78",
"|+	c #0A2077",
"1+	c #0F1979",
"2+	c #352672",
"3+	c #352264",
"4+	c #372463",
"5+	c #1E1A7B",
"6+	c #270872",
"7+	c #3B0062",
"8+	c #2E0169",
"9+	c #3A0062",
"0+	c #095B89",
"a+	c #110883",
"b+	c #1E1C86",
"c+	c #080781",
"d+	c #141184",
"e+	c #110F84",
"f+	c #0E0F82",
"g+	c #112F73",
"h+	c #153E6E",
"i+	c #102E73",
"j+	c #163E6E",
"k+	c #113072",
"l+	c #153E6F",
"m+	c #20496A",
"n+	c #353B74",
"o+	c #5E3A5D",
"p+	c #6F4348",
"q+	c #5A3551",
"r+	c #36297A",
"s+	c #4E0E65",
"t+	c #7E0040",
"u+	c #540157",
"v+	c #770348",
"w+	c #0D5C86",
"x+	c #058E8F",
"y+	c #85719B",
"z+	c #6C6296",
"A+	c #4F4790",
"B+	c #39338C",
"C+	c #7E729A",
"D+	c #877A9C",
"E+	c #625994",
"F+	c #385D75",
"G+	c #3C706E",
"H+	c #3B6D6F",
"I+	c #3D7170",
"J+	c #41706D",
"K+	c #B2773E",
"L+	c #B9363B",
"M+	c #B4173C",
"N+	c #B3193D",
"O+	c #B51A3D",
"P+	c #B71B3A",
"Q+	c #B51D3B",
"R+	c #B31C3D",
"S+	c #B12743",
"T+	c #6C98AC",
"U+	c #015F8F",
"V+	c #00007C",
"W+	c #00007D",
"X+	c #1B2A7B",
"Y+	c #223879",
"Z+	c #213579",
"`+	c #2C3481",
" @	c #30468F",
".@	c #324C91",
"+@	c #3E508D",
"@@	c #322D84",
"#@	c #240F7B",
"$@	c #26127C",
"%@	c #25137D",
"&@	c #1D1A87",
"*@	c #1E1485",
"=@	c #36318B",
"-@	c #2C2889",
";@	c #100F83",
">@	c #121183",
",@	c #1B1886",
"'@	c #171884",
")@	c #234B7D",
"!@	c #295B7C",
"~@	c #214980",
"{@	c #48638D",
"]@	c #355E9F",
"^@	c #4684AB",
"/@	c #407AA9",
"(@	c #254597",
"_@	c #13238C",
":@	c #15268D",
"<@	c #161C89",
"[@	c #45388E",
"}@	c #6F6497",
"|@	c #5D5493",
"1@	c #252188",
"2@	c #423B8E",
"3@	c #37328C",
"4@	c #486AA1",
"5@	c #5483AA",
"6@	c #5484A9",
"7@	c #5082A6",
"8@	c #5383A6",
"9@	c #517FA7",
"0@	c #517DA6",
"a@	c #5380A7",
"b@	c #5789A9",
"c@	c #588AAA",
"d@	c #588BAA",
"e@	c #598CAB",
"f@	c #577BA5",
"g@	c #015E8E",
"h@	c #050080",
"i@	c #030380",
"j@	c #040380",
"k@	c #111083",
"l@	c #060480",
"m@	c #3754A3",
"n@	c #4669A9",
"o@	c #4757A5",
"p@	c #4A57B8",
"q@	c #3F4DAE",
"r@	c #405196",
"s@	c #3F73A5",
"t@	c #4782A9",
"u@	c #2D4D98",
"v@	c #223891",
"w@	c #1F318F",
"x@	c #1F328F",
"y@	c #1F338F",
"z@	c #1F298D",
"A@	c #3F328C",
"B@	c #433D8E",
"C@	c #110F83",
"D@	c #141183",
"E@	c #32459F",
"F@	c #42519F",
"G@	c #38379A",
"H@	c #403DAE",
"I@	c #3230A0",
"J@	c #37388D",
"K@	c #3A619E",
"L@	c #406AA1",
"M@	c #2B4093",
"N@	c #1B2189",
"O@	c #171886",
"P@	c #171986",
"Q@	c #171A86",
"R@	c #161385",
"S@	c #34288A",
"T@	c #5B5292",
"U@	c #4D4690",
"V@	c #171484",
"W@	c #2A2889",
"X@	c #588DAB",
"Y@	c #6CB2B7",
"Z@	c #66ACB5",
"`@	c #68AEB6",
" #	c #67ADB4",
".#	c #6AB0B6",
"+#	c #69AFB6",
"@#	c #6AB2B7",
"##	c #69AEB6",
"$#	c #69B0B7",
"%#	c #699BAF",
"&#	c #025F8E",
"*#	c #010180",
"=#	c #02017F",
"-#	c #2C45A0",
";#	c #2C489F",
">#	c #3F47A0",
",#	c #3B3EB1",
"'#	c #3136A9",
")#	c #2F398E",
"!#	c #31619F",
"~#	c #386DA3",
"{#	c #1E3892",
"]#	c #13228B",
"^#	c #0D1787",
"/#	c #0E1987",
"(#	c #0E1286",
"_#	c #2E2489",
":#	c #252288",
"<#	c #181584",
"[#	c #0E0D83",
"}#	c #0A0881",
"|#	c #192897",
"1#	c #303997",
"2#	c #120D8F",
"3#	c #241BA6",
"4#	c #130B94",
"5#	c #1B1684",
"6#	c #1D3F95",
"7#	c #244B99",
"8#	c #0E1F8A",
"9#	c #715F96",
"0#	c #423C8D",
"a#	c #201E87",
"b#	c #201C86",
"c#	c #3C388D",
"d#	c #83C6BC",
"e#	c #9EFACD",
"f#	c #9CF7CC",
"g#	c #9CF6CB",
"h#	c #9CF6CC",
"i#	c #9DF7CC",
"j#	c #9DF9CC",
"k#	c #9CDDC3",
"l#	c #03608F",
"m#	c #000181",
"n#	c #182595",
"o#	c #121C91",
"p#	c #192596",
"q#	c #17188A",
"r#	c #1B1299",
"s#	c #160D99",
"t#	c #120995",
"u#	c #160C99",
"v#	c #0B0A85",
"w#	c #1F318E",
"x#	c #0F238C",
"y#	c #000381",
"z#	c #00007B",
"A#	c #281E87",
"B#	c #262288",
"C#	c #060581",
"D#	c #0B0982",
"E#	c #121386",
"F#	c #3C5DAB",
"G#	c #3B5EAA",
"H#	c #4169B1",
"I#	c #5064A3",
"J#	c #4145B7",
"K#	c #3B43B2",
"L#	c #2F38A6",
"M#	c #3E44B0",
"N#	c #3A4B9A",
"O#	c #34619E",
"P#	c #386CA3",
"Q#	c #3769A2",
"R#	c #1C3490",
"S#	c #111D89",
"T#	c #121F89",
"U#	c #121888",
"V#	c #058D8F",
"W#	c #685895",
"X#	c #4E4790",
"Y#	c #635A94",
"Z#	c #181684",
"`#	c #231F87",
" $	c #5784A6",
".$	c #67A8B2",
"+$	c #64A4B1",
"@$	c #61A5B3",
"#$	c #64A3B3",
"$$	c #62A7B2",
"%$	c #64A9B3",
"&$	c #68A7AF",
"*$	c #66A7B2",
"=$	c #63A5B3",
"-$	c #64A4B2",
";$	c #64A4B3",
">$	c #66A9B4",
",$	c #67ABB5",
"'$	c #67ACB5",
")$	c #6897AE",
"!$	c #000081",
"~$	c #4A1469",
"{$	c #5A1864",
"]$	c #44176E",
"^$	c #21177F",
"/$	c #351377",
"($	c #44156F",
"_$	c #29177B",
":$	c #501969",
"<$	c #411A71",
"[$	c #1C1682",
"}$	c #141786",
"|$	c #151686",
"1$	c #151786",
"2$	c #141085",
"3$	c #281D87",
"4$	c #463F8F",
"5$	c #2B2789",
"6$	c #0D0C83",
"7$	c #010381",
"8$	c #63175E",
"9$	c #743267",
"0$	c #593676",
"a$	c #363688",
"b$	c #4D367D",
"c$	c #603673",
"d$	c #433480",
"e$	c #6A1E60",
"f$	c #64175F",
"g$	c #32398C",
"h$	c #253690",
"i$	c #263690",
"j$	c #27368F",
"k$	c #253790",
"l$	c #252D8D",
"m$	c #038D8F",
"n$	c #392D8B",
"o$	c #504991",
"p$	c #141384",
"q$	c #10087E",
"r$	c #573E7F",
"s$	c #5B7EA6",
"t$	c #5489AE",
"u$	c #5B88AA",
"v$	c #5D87AA",
"w$	c #5288AF",
"x$	c #6183A6",
"y$	c #6D5181",
"z$	c #7A4071",
"A$	c #5C8EAE",
"B$	c #6188A8",
"C$	c #6288A7",
"D$	c #6088A8",
"E$	c #5E8AAA",
"F$	c #5E78A3",
"G$	c #048285",
"H$	c #030080",
"I$	c #000182",
"J$	c #5B0D5B",
"K$	c #761C57",
"L$	c #4E1F6C",
"M$	c #211F83",
"N$	c #411E73",
"O$	c #5D1F65",
"P$	c #331D79",
"Q$	c #5E115C",
"R$	c #560D5E",
"S$	c #232083",
"T$	c #131E8A",
"U$	c #151E89",
"V$	c #141F89",
"W$	c #141887",
"X$	c #015688",
"Y$	c #048D8F",
"Z$	c #30258A",
"`$	c #504890",
" %	c #020381",
".%	c #4F1669",
"+%	c #56236F",
"@%	c #4A2475",
"#%	c #2F2482",
"$%	c #3B247C",
"%%	c #422479",
"&%	c #332480",
"*%	c #581D69",
"=%	c #4B1B6E",
"-%	c #252588",
";%	c #20248A",
">%	c #21248A",
",%	c #212489",
"'%	c #21258A",
")%	c #1F1D88",
"!%	c #015E8F",
"~%	c #36288A",
"{%	c #49418F",
"]%	c #2C2689",
"^%	c #171284",
"/%	c #14077D",
"(%	c #854B71",
"_%	c #8BA4A7",
":%	c #7AB5B6",
"<%	c #78B4B7",
"[%	c #81B1B4",
"}%	c #83ACAF",
"|%	c #A26473",
"1%	c #B04C5F",
"2%	c #78BCBD",
"3%	c #7BB3B6",
"4%	c #7DB2B5",
"5%	c #7AB4B7",
"6%	c #77B6B8",
"7%	c #789FB0",
"8%	c #025F8F",
"9%	c #028D8F",
"0%	c #012589",
"a%	c #012989",
"b%	c #012787",
"c%	c #00298A",
"d%	c #002889",
"e%	c #002989",
"f%	c #032A89",
"g%	c #032D8A",
"h%	c #032D8B",
"i%	c #042B89",
"j%	c #042B88",
"k%	c #032E8B",
"l%	c #032A8A",
"m%	c #006B90",
". + + @ # $ $ $ % % % % % $ % $ $ $ $ $ # @ + & * ",
"+ = - - - - - ; > , ' ) ! ~ { ] = - - - - - - = ^ ",
"+ / ( _ : < [ } | 1 2 3 4 5 6 7 8 9 9 9 9 9 9 0 a ",
"b c d e f g h g i j k l m n o p q r s t u v w x y ",
"z A B C D E B F G H I J K L M N O P Q R S T U V W ",
"X Y Z `  ...g +.@.#.$.%.&.*.=.-.;.>.,.'.).!.~.{.].",
"^./.(._.:.<.[.}.|.1.2.3.4.5.6.7.8.9.0.a.b.c.d.e.W ",
"% f.D E g.B h.i.j.k.l.m.n.o.p.q.r.s.t.u.v.w.x.y.].",
"X z.A.B.C.D.E.F.G.H.I.J.K.L.M.N.O.P.Q.R.S.T.U.V.W.",
"X.Y.Z.`. +.+++@+#+$+%+&+*+=+-+;+>+,+'+)+!+~+{+]+^+",
"$ - /+/+/+/+/+(+_+:+_+<+[+}+|+1+2+3+4+5+6+7+8+9+0+",
"X a+b+D c+d+e+f+g+h+i+j+k+l+m+n+o+p+q+r+s+t+u+v+w+",
"x+y+z+A+B+C+D+E+F+G+G+H+I+J+K+L+M+N+O+P+Q+R+S+T+U+",
"$ V+W+= = W+W+= X+Y+Z+`+ @.@+@@@#@$@$@$@$@$@%@&@].",
"X *@=@-@;@>@,@'@)@!@~@{@]@^@/@(@_@:@:@:@:@:@:@<@].",
"X.[@}@|@1@Z 2@3@4@5@6@7@8@9@0@a@b@c@d@d@d@d@e@f@g@",
"% h@/+i@j@k@C l@m@n@o@p@q@r@s@t@u@v@w@x@x@x@y@z@].",
"X.A@B@:.h.= C@D@E@F@G@H@I@J@K@L@M@N@O@P@P@P@Q@R@].",
"X S@T@U@c+- V@W@X@Y@Z@`@ #`@.#+#@#+#########$#%#&#",
"$ - < < /+- *#=#-#;#>#,#'#)#!#~#{#]#^#/#/#/#/#(#].",
"X _#:#<#- - [#}#|#1#2#3#4#5#6#7#8#- W+W+W+W+W+V+W.",
"x+9#0#a#- - b#c#d#e#f#g#g#h#g#g#g#i#i#i#g#g#j#k#l#",
"$ = - - /+/+- m#n#o#p#q#r#s#t#u#v#w#x#8#y#z#V+V+W.",
"X A#B#B#C#- D#E#F#G#H#I#J#K#L#M#N#O#P#Q#R#S#T#U#].",
"V#W#X#Y#Z#= `#3@ $.$+$@$#$$$%$&$*$=$-$;$>$,$'$)$&#",
"$ V+W+W+- /+- !$~${$]$^$/$($_$:$<$[$}$|$|$1$1$2$].",
"X 3$4$5$6$- /+7$8$9$0$a$b$c$d$e$f$g$h$i$j$i$k$l$].",
"m$n$o$=@p$- /+q$r$s$t$u$v$w$x$y$z$A$B$B$C$D$E$F$g@",
"G$H$- /+*#- /+I$J$K$L$M$N$O$P$Q$R$S$T$U$U$U$V$W$X$",
"Y$Z$`$B+6$- /+ %.%+%@%#%$%%%&%*%=%-%;%>%,%>%'%)%!%",
"Y$~%{%]%^%= - /%(%_%:%<%[%<%}%|%1%2%3%3%4%5%6%7%8%",
"9%0%a%b%c%d%d%e%f%g%h%h%h%h%h%i%j%k%h%h%k%j%g%l%m%"};
